<svg width="16" height="16" viewBox="0 0 16 16" xmlns="http://www.w3.org/2000/svg">
    <g fill="none" fill-rule="evenodd">
        <path fill="#40B6E0" fill-opacity=".7" d="M1 16h15V9H1z"/>
        <path fill="#9AA7B0" fill-opacity=".8" d="M7 1 3 5h4z"/>
        <path fill="#9AA7B0" fill-opacity=".8" d="M8 1v5H3v2h10V1z"/>
        <path d="M2.115 10.89v1.455h.38q.455 0 .639-.163t.184-.565q0-.402-.184-.565-.184-.163-.639-.163zm-.926-.825h1.272q.97 0 1.395.365.425.366.425 1.187 0 .82-.425 1.186t-1.395.366h-.346v1.858H1.19Zm5.296.791q-.355 0-.518.4-.163.4-.163 1.295 0 .89.163 1.291.163.4.518.4.358 0 .521-.4.164-.4.164-1.291 0-.894-.164-1.295-.163-.4-.52-.4ZM4.84 12.55q0-1.273.416-1.924.416-.652 1.23-.652.815 0 1.231.652.416.65.416 1.924 0 1.27-.416 1.92-.416.652-1.232.652-.813 0-1.229-.651-.416-.652-.416-1.921Zm3.924 2.23v-1.136q.27.293.576.446.307.152.617.152.365 0 .534-.192.17-.193.17-.615v-2.506H9.527v-.864h2.06v3.37q0 .907-.36 1.298-.36.39-1.185.39-.298 0-.623-.086-.325-.087-.655-.256Zm5.463-3.924q-.355 0-.518.4-.163.4-.163 1.295 0 .89.163 1.291.163.4.518.4.358 0 .521-.4.163-.4.163-1.291 0-.894-.163-1.295-.163-.4-.521-.4Zm-1.645 1.695q0-1.273.416-1.924.416-.652 1.229-.652.816 0 1.232.652.416.65.416 1.924 0 1.27-.416 1.92-.416.652-1.232.652-.813 0-1.23-.651-.415-.652-.415-1.921Z"
              fill="#231F20" fill-opacity=".8"/>
    </g>
</svg>
